<svg xmlns="http://www.w3.org/2000/svg" width="208.617" height="37.8" viewBox="0 0 208.617 37.8"><g transform="translate(0.683 0.5)"><path d="M38.044,36.8,49.229,0H65.47L55.664,31.964h57.892L111.968,36.8Zm-7.508,0H0L4.49,22.629H20.883l-2.912,9.334h2.912L24.56,20.24H5.081l5.69-18.716C11.078.368,12.3,0,15.674,0H46.3L42.049,13.7H26.267l2.583-8.865H25.94L22.557,16.418H41.321L35.314,36.8Zm76.2-6.9h-47.5L68.278,0H84.519L77.056,23.421h3.064L87.583,0h15.781L95.9,23.421h2.911L106.275,0h16.667l-9.034,29.9Zm-12.895,0h0Zm-18.845,0h0Zm114.321-.021c-1.921,0-2.562-.213-2.306-.854L195.885.853c.128-.64.9-.853,2.818-.853h6.4c1.921,0,2.434.213,2.305.853L203.058,14.47h-6.917L191.747,28.6h2.562l4.138-13.275H202.8l-4.267,13.7c-.256.641-.9.854-2.818.854Zm7.212-16.69h2.562L202.8,1.28H200.24Zm-24.094,16.69L173,28.216h7.7l.384-1.11h-5.251c-1.921,0-2.562-.213-2.305-.853l8.017-25.4c.128-.64.9-.853,2.818-.853h6.66c1.921,0,2.433.213,2.306.853l-8.966,28.172c-.128.641-.9.854-2.818.854Zm6.491-6.018h2.562L188.456,1.28h-2.562Zm-18.045,6.018c-1.921,0-2.562-.213-2.306-.854l4.65-14.982c.256-.641.9-.854,2.818-.854H170.4L174.11,1.28h-2.562L168.09,12.336h-4.355L167.449.853c.128-.64.9-.853,2.818-.853h6.4c1.921,0,2.434.213,2.306.853l-9.134,29.026Zm2.177-1.281h2.562l4.394-14.128h-2.562ZM144.61,29.879,154,0h8.967c1.921,0,2.433.213,2.305.853l-5.507,17.287h-4.355L160.66,1.28H158.1l-8.877,28.6Zm-11.528,0c-1.921,0-2.562-.213-2.306-.854l4.65-14.982c.256-.641.9-.854,2.818-.854H142.6L146.314,1.28h-2.562l-3.458,11.056h-4.355L139.654.853c.128-.64.9-.853,2.818-.853h6.4c1.921,0,2.434.213,2.305.853l-9.133,29.026Zm2.177-1.281h2.562l4.395-14.128h-2.562Zm-18.9,1.281.565-1.663h7.663l.385-1.11h-5.252c-1.921,0-2.562-.213-2.306-.853l8.018-25.4c.128-.64.9-.853,2.818-.853h6.661c1.921,0,2.434.213,2.305.853l-8.966,28.172a4.209,4.209,0,0,1-2.818.854Zm6.457-6.018h2.562l6.97-22.581H129.79Z" transform="translate(0)" fill="#fff" stroke="rgba(0,0,0,0)" stroke-miterlimit="10" stroke-width="1"/></g></svg>