<?xml version="1.0" standalone="no"?>
<!DOCTYPE svg PUBLIC "-//W3C//DTD SVG 20010904//EN"
 "http://www.w3.org/TR/2001/REC-SVG-20010904/DTD/svg10.dtd">
<svg version="1.0" xmlns="http://www.w3.org/2000/svg"
 width="245.000000pt" height="245.000000pt" viewBox="0 0 245.000000 245.000000"
 preserveAspectRatio="xMidYMid meet">
<metadata>
Created by potrace 1.14, written by Peter Selinger 2001-2017
</metadata>
<g transform="translate(0.000000,245.000000) scale(0.100000,-0.100000)"
fill="#000000" stroke="none">
<path d="M263 1592 c-27 -3 -34 -9 -47 -45 -16 -45 -89 -285 -99 -327 l-6 -26
189 1 c105 0 190 -1 190 -4 0 -2 -16 -55 -36 -118 -32 -103 -38 -113 -60 -113
-30 0 -30 6 1 105 14 44 25 81 25 81 0 1 -72 1 -161 1 -154 0 -161 -1 -169
-21 -22 -52 -80 -250 -75 -254 6 -6 684 -6 689 -1 5 5 116 382 116 392 0 4
-83 7 -184 7 l-185 0 14 43 c7 23 23 75 34 115 20 67 23 72 50 72 l28 0 -19
-67 c-34 -117 -45 -107 125 -108 90 0 151 4 156 10 7 8 81 243 81 256 0 5
-608 6 -657 1z"/>
<path d="M976 1580 c-3 -8 -28 -91 -56 -185 -29 -93 -67 -222 -87 -285 -19
-63 -43 -142 -53 -175 -10 -33 -17 -62 -14 -64 7 -7 1441 -4 1452 3 12 7 34
77 27 84 -2 3 -259 4 -570 4 -522 0 -565 1 -561 16 3 10 44 145 92 302 48 157
87 292 88 300 2 22 -312 22 -318 0z"/>
<path d="M1354 1585 c-3 -10 -161 -535 -170 -566 -4 -15 40 -17 536 -17 l540
-1 25 82 c13 45 52 172 85 282 33 110 62 207 65 215 4 13 -18 15 -160 15
l-165 0 -61 -190 c-33 -104 -66 -208 -73 -230 -10 -32 -18 -40 -39 -42 -15 -1
-27 2 -27 6 0 7 37 126 114 366 14 45 21 82 16 85 -11 7 -297 7 -303 0 -2 -3
-18 -52 -35 -110 -100 -330 -106 -344 -136 -347 -26 -2 -28 0 -22 28 3 17 33
117 67 222 34 106 62 196 63 202 1 13 -315 13 -320 0z"/>
</g>
</svg>
